<svg width="216" height="216" viewBox="0 0 216 216" fill="none" xmlns="http://www.w3.org/2000/svg">
<g clip-path="url(#clip0_1_77)">
<g clip-path="url(#clip1_1_77)">
<path d="M108 216C167.647 216 216 167.647 216 108C216 48.3532 167.647 0 108 0C48.3532 0 0 48.3532 0 108C0 167.647 48.3532 216 108 216Z" fill="#00447B"/>
<path fill-rule="evenodd" clip-rule="evenodd" d="M183.8 184.922C163.418 205.011 135.895 216.188 107.278 215.998C78.6603 215.807 51.2888 204.264 31.1768 183.905C33.7489 176.792 38.7446 170.812 45.2867 167.016C49.696 163.756 54.4771 161.032 59.5295 158.9C51.8471 132.501 72.7307 119.524 80.7206 115.788C80.7206 127.975 92.1323 119.887 106.295 120.041C117.955 120.171 141.012 131.907 141.012 116.424C153.839 120.219 167.82 144.665 158.198 159.683C162.143 161.612 165.87 163.958 169.316 166.681C176.052 170.967 181.153 177.389 183.8 184.922Z" fill="#FAAE39"/>
<path fill-rule="evenodd" clip-rule="evenodd" d="M83.9956 135.193L136.143 135.507V147.52L136.119 147.705C136.083 148.25 136.001 148.79 135.874 149.32L135.699 150.512L135.595 150.76C132.218 168.495 117.444 175.349 108.322 180.123C98.7102 174.887 85.1211 165.454 84.041 148.764L83.9956 148.558V147.859C83.9881 147.618 83.9835 147.377 83.9816 147.136C83.9816 147.261 83.9921 147.38 83.9956 147.506V135.193Z" fill="#F9DCA4"/>
<path opacity="0.11" fill-rule="evenodd" clip-rule="evenodd" d="M136.147 134.972V148.971C136.137 150.268 136.026 151.563 135.815 152.843C135.55 154.428 135.104 155.977 134.487 157.46C116.368 171.144 87.4977 159.921 82.8876 136.549L136.147 134.972Z" fill="black"/>
<path fill-rule="evenodd" clip-rule="evenodd" d="M63.2763 88.2003C46.0103 92.6391 60.6899 113.68 71.5494 113.589C67.17 105.743 64.3601 97.12 63.2763 88.2003Z" fill="#F9DCA4"/>
<path fill-rule="evenodd" clip-rule="evenodd" d="M153.217 88.2003C170.483 92.6391 155.804 113.68 144.941 113.586C149.321 105.741 152.132 97.1191 153.217 88.2003Z" fill="#F9DCA4"/>
<path fill-rule="evenodd" clip-rule="evenodd" d="M107.417 39.7085C179.148 39.7085 151.193 153.112 107.417 153.112C66.0689 153.112 35.6855 39.7085 107.417 39.7085Z" fill="#FFE8BE"/>
<path fill-rule="evenodd" clip-rule="evenodd" d="M73.5626 77.2604C74.1745 77.9312 74.6283 78.7306 74.8906 79.5998C75.1529 80.4691 75.217 81.3861 75.0782 82.2834C74.9394 83.1806 74.6012 84.0354 74.0885 84.7848C73.5758 85.5341 72.9016 86.159 72.1156 86.6135C67.0476 90.7832 66.8623 105.323 66.8623 105.323C64.9051 103.38 64.9505 92.9712 60.7074 86.956C56.4643 80.9408 53.6052 38.8522 77.3338 23.5469C75.8757 25.2619 74.8248 27.2849 74.2601 29.4641C73.6953 31.6433 73.6313 33.922 74.0729 36.1294C74.0729 36.1294 90.556 12.4917 117.902 13.1732C115.734 14.3554 113.84 15.981 112.342 17.9442C110.844 19.9074 109.777 22.1642 109.21 24.5675C109.21 24.5675 133.117 14.7041 153.039 26.4374C147.859 27.869 142.96 30.1701 138.552 33.2424C148.226 33.5081 157.576 35.3046 164.625 41.5749C163.108 42.062 161.704 42.8482 160.496 43.8871C159.287 44.926 158.3 46.1965 157.591 47.6236C156.882 49.0507 156.466 50.6054 156.368 52.1959C156.27 53.7863 156.492 55.3803 157.02 56.8837C160.012 69.1272 160.291 80.5179 157.394 86.6414C154.496 92.765 153.13 88.8119 151.316 101.653C151.227 102.521 150.938 103.356 150.47 104.092C150.003 104.828 149.371 105.446 148.625 105.896C148.555 106.826 149.96 92.7685 146.335 89.0251C142.714 85.2853 144.99 80.6892 146.437 77.97C156.538 59.0017 126.287 50.4072 109.751 50.4281C95.4108 50.4456 60.8192 56.9641 73.5626 77.2604Z" fill="#AD6B05"/>
<path fill-rule="evenodd" clip-rule="evenodd" d="M69.1692 171.829C69.274 171.962 105.582 218.954 148.265 171.13C143.109 185.292 120.873 196.54 108.154 196.505C83.8628 196.435 70.4204 176.932 69.1692 171.829Z" fill="#AD6B05"/>
<path fill-rule="evenodd" clip-rule="evenodd" d="M127 214.334C125.567 214.585 124.127 214.805 122.677 215.005V183.768C122.73 183.245 122.985 182.764 123.389 182.427C123.793 182.09 124.312 181.924 124.837 181.965C125.361 181.923 125.882 182.088 126.286 182.425C126.691 182.762 126.947 183.245 127 183.768V214.334ZM92.6776 214.914C91.2283 214.706 89.7871 214.473 88.3541 214.215V183.768C88.4072 183.245 88.663 182.764 89.0667 182.427C89.4703 182.09 89.9898 181.924 90.5141 181.965C91.0395 181.922 91.5608 182.087 91.966 182.424C92.3712 182.761 92.6279 183.244 92.6811 183.768L92.6776 214.914Z" fill="#FEFEFE"/>
</g>
</g>
<defs>
<clipPath id="clip0_1_77">
<rect width="216" height="216" fill="white"/>
</clipPath>
<clipPath id="clip1_1_77">
<rect width="216" height="216" fill="white"/>
</clipPath>
</defs>
</svg>
