<svg width="80" height="80" viewBox="0 0 80 80" fill="none" xmlns="http://www.w3.org/2000/svg">
<path d="M12.5 31V40C12.5 48.5 24.5 55 40 55C55.5 55 67.5 48.5 67.5 40V31C62 36.5 52 40 40 40C28 40 18 36.5 12.5 31Z" fill="#FAAE39"/>
<path d="M12.5 51V60C12.5 68.5 24.5 75 40 75C55.5 75 67.5 68.5 67.5 60V51C62 56.5 52 60 40 60C28 60 18 56.5 12.5 51Z" fill="#FAAE39"/>
<path d="M40 35C55.1878 35 67.5 28.2843 67.5 20C67.5 11.7157 55.1878 5 40 5C24.8122 5 12.5 11.7157 12.5 20C12.5 28.2843 24.8122 35 40 35Z" fill="#FAAE39"/>
</svg>
