<svg width="35" height="35" viewBox="0 0 35 35" fill="none" xmlns="http://www.w3.org/2000/svg">
<path d="M35 17.5C35 20.9612 33.9736 24.3446 32.0507 27.2225C30.1278 30.1003 27.3947 32.3433 24.197 33.6679C20.9993 34.9924 17.4806 35.339 14.0859 34.6637C10.6913 33.9885 7.57306 32.3218 5.12564 29.8744C2.67822 27.4269 1.01151 24.3087 0.336265 20.9141C-0.338976 17.5194 0.00758246 14.0007 1.33212 10.803C2.65665 7.60533 4.89967 4.87221 7.77753 2.94928C10.6554 1.02636 14.0388 0 17.5 0C19.7981 0 22.0738 0.452651 24.197 1.33211C26.3202 2.21157 28.2493 3.50061 29.8744 5.12563C31.4994 6.75066 32.7884 8.67984 33.6679 10.803C34.5473 12.9262 35 15.2019 35 17.5ZM25.893 22.7188C25.8889 22.592 25.862 22.4669 25.8134 22.3497C25.7418 22.1845 25.6364 22.0362 25.504 21.9142L24.6552 21.0632L24.4098 20.8223L24.4054 20.8179L18.9633 15.3713L18.9567 15.3603L18.3267 14.7303L16.5561 16.5009C16.2267 16.8484 15.8074 17.0978 15.3448 17.2215C14.9574 17.3225 14.551 17.3261 14.1619 17.232C13.7728 17.1379 13.4129 16.949 13.1145 16.6821L13.0924 16.66L13.0548 16.6269L12.668 16.24C12.2715 15.863 12.0124 15.3643 11.9319 14.8232C11.876 14.4416 11.9077 14.0523 12.0248 13.6848C12.1431 13.3142 12.3399 12.9734 12.6017 12.6857L12.6194 12.6636L12.6481 12.6348L13.9589 11.324L11.1229 8.4328L5.70513 13.9368L7.07781 15.2321L8.43281 16.5849C8.3581 16.9183 8.33425 17.2611 8.36208 17.6017C8.39399 17.9883 8.47495 18.3694 8.60301 18.7356C8.75119 19.1606 8.9493 19.5665 9.1932 19.9447C9.4808 20.3899 9.81661 20.8021 10.1945 21.1737L17.8758 28.855C17.9766 28.9594 18.0987 29.0408 18.2339 29.0937C18.35 29.1352 18.4731 29.154 18.5964 29.149C18.7533 29.1369 18.9004 29.0677 19.0097 28.9545L19.3877 28.5787C19.4715 28.4843 19.5301 28.3702 19.5579 28.2471C19.5848 28.1276 19.5832 28.0034 19.5535 27.8846C19.5049 27.7172 19.4099 27.567 19.2794 27.4514L18.351 26.5141C18.3222 26.4879 18.2991 26.4561 18.2831 26.4206C18.267 26.3851 18.2584 26.3467 18.2578 26.3078C18.2572 26.2689 18.2646 26.2302 18.2795 26.1942C18.2943 26.1582 18.3164 26.1257 18.3444 26.0986L18.5301 25.9483C18.5664 25.9128 18.6152 25.8929 18.666 25.8929C18.7168 25.8929 18.7656 25.9128 18.8019 25.9483L20.2166 27.3364C20.6808 27.8006 21.0927 27.8736 21.4523 27.5553L21.828 27.1773C21.8852 27.1193 21.9343 27.0539 21.9739 26.9828C22.0195 26.8987 22.0424 26.8042 22.0402 26.7087C22.0358 26.5851 22.0033 26.4641 21.9452 26.355C21.8605 26.1975 21.7508 26.0549 21.6203 25.9328L20.2542 24.5955C20.1976 24.5391 20.1656 24.4625 20.1652 24.3826C20.1648 24.3027 20.196 24.2259 20.252 24.1689L20.389 24.0296C20.4153 24.0026 20.4469 23.9813 20.4817 23.9669C20.5165 23.9525 20.5539 23.9454 20.5916 23.946C20.6293 23.9467 20.6665 23.955 20.7008 23.9705C20.7352 23.986 20.766 24.0084 20.7913 24.0362L22.2723 25.546C22.3232 25.599 22.3917 25.6653 22.4801 25.7449C22.5647 25.8242 22.6638 25.8864 22.7719 25.9284C22.8826 25.9727 23.003 25.9872 23.1211 25.9704C23.2697 25.9387 23.4039 25.8595 23.5035 25.7449L23.981 25.2675C24.0382 25.2095 24.0873 25.1441 24.1269 25.0729C24.1726 24.989 24.1955 24.8944 24.1932 24.7988C24.1888 24.6779 24.1579 24.5594 24.1026 24.4518C24.0335 24.3087 23.9383 24.1797 23.8218 24.0716L22.3939 22.6746C22.3586 22.6393 22.3306 22.5974 22.3115 22.5512C22.2925 22.505 22.2828 22.4555 22.283 22.4056C22.2832 22.3556 22.2933 22.3062 22.3127 22.2602C22.3321 22.2142 22.3605 22.1725 22.3961 22.1375L22.4492 22.0778C22.479 22.0479 22.5146 22.0243 22.5539 22.0087C22.5932 21.9931 22.6352 21.9856 22.6775 21.9869C22.7197 21.9881 22.7613 21.998 22.7996 22.0159C22.8379 22.0338 22.8721 22.0594 22.9001 22.0911L24.1004 23.3156C24.1335 23.3488 24.1888 23.4041 24.2728 23.4792C24.3603 23.5586 24.4594 23.6242 24.5668 23.6737C24.6822 23.7268 24.8091 23.7503 24.9359 23.7423C25.0938 23.7218 25.2385 23.6439 25.3426 23.5234L25.7206 23.1454C25.7622 23.0984 25.7978 23.0464 25.8267 22.9907C25.8716 22.9065 25.8937 22.812 25.8908 22.7166L25.893 22.7188ZM29.1468 13.8351L23.7533 8.44164L21.7529 10.4421C21.0535 10.2958 20.3442 10.2019 19.6309 10.1614C19.2298 10.1385 18.8276 10.1496 18.4284 10.1945C18.0398 10.2382 17.6586 10.3326 17.2944 10.4752C16.9356 10.6143 16.6096 10.8266 16.3373 11.0986L13.7423 13.6958L13.7378 13.7003C13.6211 13.8267 13.5329 13.9767 13.4792 14.1401L13.477 14.1512C13.4303 14.3013 13.4182 14.46 13.4416 14.6154C13.4805 14.8266 13.5876 15.0192 13.7467 15.1636L14.1225 15.5393C14.2385 15.6441 14.3792 15.7179 14.5314 15.7538L14.5402 15.756C14.6849 15.7877 14.835 15.7839 14.9779 15.7449C15.1721 15.6862 15.3464 15.5754 15.4819 15.4244L17.7896 13.1167C17.9325 12.9743 18.126 12.8943 18.3278 12.8943C18.5296 12.8943 18.7231 12.9743 18.8661 13.1167L25.4797 19.7414L25.5681 19.8298L25.7449 19.5645C25.9831 19.1952 26.1768 18.799 26.3218 18.3842C26.4474 18.0228 26.5268 17.647 26.5584 17.2657C26.5724 17.0788 26.5724 16.8911 26.5584 16.7042C26.5497 16.5955 26.5648 16.4861 26.6026 16.3837L29.1468 13.8351ZM22.2679 24.5911L22.2768 24.5844C22.2519 24.6021 22.226 24.6183 22.1994 24.6331C22.2216 24.6174 22.2445 24.6026 22.2679 24.5889V24.5911Z" fill="#FEFEFE"/>
</svg>
