<svg width="334" height="334" viewBox="0 0 334 334" fill="none" xmlns="http://www.w3.org/2000/svg">
<g filter="url(#filter0_f_21_283)">
<rect x="4" y="330" width="326" height="326" rx="20" transform="rotate(-90 4 330)" fill="url(#paint0_linear_21_283)"/>
</g>
<path d="M201.689 120H188.682C187.986 120 187.319 119.723 186.826 119.231C186.334 118.739 186.057 118.071 186.057 117.375C186.057 116.679 186.334 116.011 186.826 115.519C187.319 115.027 187.986 114.75 188.682 114.75H199.064V96.9788H171.174V114.75H175.032C175.729 114.75 176.396 115.027 176.889 115.519C177.381 116.011 177.657 116.679 177.657 117.375C177.657 118.071 177.381 118.739 176.889 119.231C176.396 119.723 175.729 120 175.032 120H168.549C167.853 120 167.185 119.723 166.693 119.231C166.2 118.739 165.924 118.071 165.924 117.375V94.3538C165.924 93.6576 166.2 92.9899 166.693 92.4976C167.185 92.0053 167.853 91.7288 168.549 91.7288H201.689C202.386 91.7288 203.053 92.0053 203.545 92.4976C204.038 92.9899 204.314 93.6576 204.314 94.3538V117.375C204.314 118.071 204.038 118.739 203.545 119.231C203.053 119.723 202.386 120 201.689 120Z" fill="#0074FF"/>
<path d="M168.549 144.767C167.853 144.767 167.185 144.49 166.693 143.998C166.2 143.506 165.924 142.838 165.924 142.142V117.375C165.924 116.679 166.2 116.011 166.693 115.519C167.185 115.027 167.853 114.75 168.549 114.75C169.245 114.75 169.913 115.027 170.405 115.519C170.897 116.011 171.174 116.679 171.174 117.375V142.142C171.174 142.838 170.897 143.506 170.405 143.998C169.913 144.49 169.245 144.767 168.549 144.767Z" fill="#0074FF"/>
<path d="M158.639 128.597H153.494C152.798 128.597 152.131 128.32 151.638 127.828C151.146 127.336 150.869 126.668 150.869 125.972C150.869 125.276 151.146 124.608 151.638 124.116C152.131 123.623 152.798 123.347 153.494 123.347H156.014V110.314H134.936V123.347H142.063C142.759 123.347 143.426 123.623 143.919 124.116C144.411 124.608 144.688 125.276 144.688 125.972C144.688 126.668 144.411 127.336 143.919 127.828C143.426 128.32 142.759 128.597 142.063 128.597H132.311C131.614 128.597 130.947 128.32 130.455 127.828C129.962 127.336 129.686 126.668 129.686 125.972V107.689C129.686 106.993 129.962 106.325 130.455 105.833C130.947 105.34 131.614 105.064 132.311 105.064H158.639C159.336 105.064 160.003 105.34 160.496 105.833C160.988 106.325 161.264 106.993 161.264 107.689V125.972C161.264 126.668 160.988 127.336 160.496 127.828C160.003 128.32 159.336 128.597 158.639 128.597Z" fill="#FFB300"/>
<path d="M158.639 148.271C157.943 148.271 157.276 147.995 156.783 147.502C156.291 147.01 156.014 146.342 156.014 145.646V125.959C156.014 125.263 156.291 124.595 156.783 124.103C157.276 123.61 157.943 123.334 158.639 123.334C159.336 123.334 160.003 123.61 160.496 124.103C160.988 124.595 161.264 125.263 161.264 125.959V145.646C161.264 146.342 160.988 147.01 160.496 147.502C160.003 147.995 159.336 148.271 158.639 148.271Z" fill="#FFB300"/>
<path d="M201.689 120H188.683C187.986 120 187.319 119.723 186.826 119.231C186.334 118.739 186.058 118.071 186.058 117.375C186.058 116.679 186.334 116.011 186.826 115.519C187.319 115.027 187.986 114.75 188.683 114.75H199.064V96.9788H171.174V114.75H175.033C175.729 114.75 176.396 115.027 176.889 115.519C177.381 116.011 177.658 116.679 177.658 117.375C177.658 118.071 177.381 118.739 176.889 119.231C176.396 119.723 175.729 120 175.033 120H168.549C167.853 120 167.185 119.723 166.693 119.231C166.2 118.739 165.924 118.071 165.924 117.375V94.3538C165.924 93.6576 166.2 92.9899 166.693 92.4976C167.185 92.0054 167.853 91.7288 168.549 91.7288H201.689C202.386 91.7288 203.053 92.0054 203.546 92.4976C204.038 92.9899 204.314 93.6576 204.314 94.3538V117.375C204.314 118.071 204.038 118.739 203.546 119.231C203.053 119.723 202.386 120 201.689 120Z" fill="#0074FF"/>
<path d="M168.549 144.767C167.853 144.767 167.185 144.49 166.693 143.998C166.2 143.506 165.924 142.838 165.924 142.142V117.375C165.924 116.679 166.2 116.011 166.693 115.519C167.185 115.027 167.853 114.75 168.549 114.75C169.245 114.75 169.913 115.027 170.405 115.519C170.897 116.011 171.174 116.679 171.174 117.375V142.142C171.174 142.838 170.897 143.506 170.405 143.998C169.913 144.49 169.245 144.767 168.549 144.767Z" fill="#0074FF"/>
<path d="M158.639 128.597H153.494C152.798 128.597 152.13 128.32 151.638 127.828C151.146 127.336 150.869 126.668 150.869 125.972C150.869 125.276 151.146 124.608 151.638 124.116C152.13 123.623 152.798 123.347 153.494 123.347H156.014V110.314H134.936V123.347H142.062C142.759 123.347 143.426 123.623 143.919 124.116C144.411 124.608 144.687 125.276 144.687 125.972C144.687 126.668 144.411 127.336 143.919 127.828C143.426 128.32 142.759 128.597 142.062 128.597H132.311C131.614 128.597 130.947 128.32 130.454 127.828C129.962 127.336 129.686 126.668 129.686 125.972V107.689C129.686 106.993 129.962 106.325 130.454 105.833C130.947 105.34 131.614 105.064 132.311 105.064H158.639C159.335 105.064 160.003 105.34 160.495 105.833C160.988 106.325 161.264 106.993 161.264 107.689V125.972C161.264 126.668 160.988 127.336 160.495 127.828C160.003 128.32 159.335 128.597 158.639 128.597Z" fill="#FFB300"/>
<path d="M158.639 148.271C157.943 148.271 157.276 147.995 156.783 147.502C156.291 147.01 156.014 146.342 156.014 145.646V125.959C156.014 125.263 156.291 124.595 156.783 124.103C157.276 123.61 157.943 123.334 158.639 123.334C159.336 123.334 160.003 123.61 160.496 124.103C160.988 124.595 161.264 125.263 161.264 125.959V145.646C161.264 146.342 160.988 147.01 160.496 147.502C160.003 147.995 159.336 148.271 158.639 148.271Z" fill="#FFB300"/>
<path d="M66.9176 202.656H63.1847C63.1165 202.173 62.9773 201.744 62.767 201.369C62.5568 200.989 62.2869 200.665 61.9574 200.398C61.6278 200.131 61.2472 199.926 60.8153 199.784C60.3892 199.642 59.9261 199.571 59.4261 199.571C58.5227 199.571 57.7358 199.795 57.0653 200.244C56.3949 200.687 55.875 201.335 55.5057 202.188C55.1364 203.034 54.9517 204.062 54.9517 205.273C54.9517 206.517 55.1364 207.562 55.5057 208.409C55.8807 209.256 56.4034 209.895 57.0739 210.327C57.7443 210.759 58.5199 210.974 59.4006 210.974C59.8949 210.974 60.3523 210.909 60.7727 210.778C61.1989 210.648 61.5767 210.457 61.9062 210.207C62.2358 209.952 62.5085 209.642 62.7244 209.278C62.946 208.915 63.0994 208.5 63.1847 208.034L66.9176 208.051C66.821 208.852 66.5795 209.625 66.1932 210.369C65.8125 211.108 65.2983 211.77 64.6506 212.355C64.0085 212.935 63.2415 213.395 62.3494 213.736C61.4631 214.071 60.4602 214.239 59.3409 214.239C57.7841 214.239 56.392 213.886 55.1648 213.182C53.9432 212.477 52.9773 211.457 52.267 210.122C51.5625 208.787 51.2102 207.17 51.2102 205.273C51.2102 203.369 51.5682 201.75 52.2841 200.415C53 199.08 53.9716 198.062 55.1989 197.364C56.4261 196.659 57.8068 196.307 59.3409 196.307C60.3523 196.307 61.2898 196.449 62.1534 196.733C63.0227 197.017 63.7926 197.432 64.4631 197.977C65.1335 198.517 65.679 199.179 66.0994 199.963C66.5256 200.747 66.7983 201.645 66.9176 202.656ZM75.4105 214.256C74.0866 214.256 72.9418 213.974 71.9759 213.412C71.0156 212.844 70.2741 212.054 69.7514 211.043C69.2287 210.026 68.9673 208.847 68.9673 207.506C68.9673 206.153 69.2287 204.972 69.7514 203.96C70.2741 202.943 71.0156 202.153 71.9759 201.591C72.9418 201.023 74.0866 200.739 75.4105 200.739C76.7344 200.739 77.8764 201.023 78.8366 201.591C79.8026 202.153 80.5469 202.943 81.0696 203.96C81.5923 204.972 81.8537 206.153 81.8537 207.506C81.8537 208.847 81.5923 210.026 81.0696 211.043C80.5469 212.054 79.8026 212.844 78.8366 213.412C77.8764 213.974 76.7344 214.256 75.4105 214.256ZM75.4276 211.443C76.0298 211.443 76.5327 211.273 76.9361 210.932C77.3395 210.585 77.6435 210.114 77.848 209.517C78.0582 208.92 78.1634 208.241 78.1634 207.48C78.1634 206.719 78.0582 206.04 77.848 205.443C77.6435 204.847 77.3395 204.375 76.9361 204.028C76.5327 203.682 76.0298 203.509 75.4276 203.509C74.8196 203.509 74.3082 203.682 73.8935 204.028C73.4844 204.375 73.1747 204.847 72.9645 205.443C72.7599 206.04 72.6577 206.719 72.6577 207.48C72.6577 208.241 72.7599 208.92 72.9645 209.517C73.1747 210.114 73.4844 210.585 73.8935 210.932C74.3082 211.273 74.8196 211.443 75.4276 211.443ZM92.6094 208.426V200.909H96.2401V214H92.7543V211.622H92.6179C92.3224 212.389 91.831 213.006 91.1435 213.472C90.4616 213.937 89.6293 214.17 88.6463 214.17C87.7713 214.17 87.0014 213.972 86.3366 213.574C85.6719 213.176 85.152 212.611 84.777 211.878C84.4077 211.145 84.2202 210.267 84.2145 209.244V200.909H87.8452V208.597C87.8509 209.369 88.0582 209.98 88.4673 210.429C88.8764 210.878 89.4247 211.102 90.1122 211.102C90.5497 211.102 90.9588 211.003 91.3395 210.804C91.7202 210.599 92.027 210.298 92.2599 209.901C92.4986 209.503 92.6151 209.011 92.6094 208.426ZM102.775 206.432V214H99.1442V200.909H102.604V203.219H102.758C103.048 202.457 103.533 201.855 104.215 201.412C104.897 200.963 105.724 200.739 106.695 200.739C107.604 200.739 108.397 200.938 109.073 201.335C109.749 201.733 110.275 202.301 110.65 203.04C111.025 203.773 111.212 204.648 111.212 205.665V214H107.582V206.312C107.587 205.511 107.383 204.886 106.968 204.438C106.553 203.983 105.982 203.756 105.255 203.756C104.766 203.756 104.335 203.861 103.96 204.071C103.59 204.281 103.3 204.588 103.09 204.991C102.886 205.389 102.781 205.869 102.775 206.432ZM121.037 200.909V203.636H113.153V200.909H121.037ZM114.943 197.773H118.574V209.977C118.574 210.312 118.625 210.574 118.727 210.761C118.83 210.943 118.972 211.071 119.153 211.145C119.341 211.219 119.557 211.256 119.801 211.256C119.972 211.256 120.142 211.241 120.312 211.213C120.483 211.179 120.614 211.153 120.705 211.136L121.276 213.838C121.094 213.895 120.838 213.96 120.509 214.034C120.179 214.114 119.778 214.162 119.307 214.179C118.432 214.213 117.665 214.097 117.006 213.83C116.352 213.562 115.844 213.148 115.48 212.585C115.116 212.023 114.938 211.312 114.943 210.455V197.773ZM123.402 214V200.909H126.922V203.193H127.058C127.297 202.381 127.697 201.767 128.26 201.352C128.822 200.932 129.47 200.722 130.203 200.722C130.385 200.722 130.581 200.733 130.791 200.756C131.001 200.778 131.186 200.81 131.345 200.849V204.071C131.175 204.02 130.939 203.974 130.638 203.935C130.337 203.895 130.061 203.875 129.811 203.875C129.277 203.875 128.8 203.991 128.379 204.224C127.964 204.452 127.635 204.77 127.391 205.179C127.152 205.588 127.033 206.06 127.033 206.594V214H123.402ZM133.222 214V200.909H136.853V214H133.222ZM135.046 199.222C134.506 199.222 134.043 199.043 133.657 198.685C133.276 198.321 133.086 197.886 133.086 197.381C133.086 196.881 133.276 196.452 133.657 196.094C134.043 195.73 134.506 195.548 135.046 195.548C135.586 195.548 136.046 195.73 136.427 196.094C136.813 196.452 137.006 196.881 137.006 197.381C137.006 197.886 136.813 198.321 136.427 198.685C136.046 199.043 135.586 199.222 135.046 199.222ZM145.727 214.256C144.381 214.256 143.222 213.983 142.25 213.438C141.284 212.886 140.54 212.108 140.017 211.102C139.494 210.091 139.233 208.895 139.233 207.514C139.233 206.168 139.494 204.986 140.017 203.969C140.54 202.952 141.276 202.159 142.224 201.591C143.179 201.023 144.298 200.739 145.582 200.739C146.446 200.739 147.25 200.878 147.994 201.156C148.744 201.429 149.398 201.841 149.955 202.392C150.517 202.943 150.955 203.636 151.267 204.472C151.58 205.301 151.736 206.273 151.736 207.386V208.384H140.682V206.134H148.318C148.318 205.611 148.205 205.148 147.977 204.744C147.75 204.341 147.435 204.026 147.031 203.798C146.634 203.565 146.17 203.449 145.642 203.449C145.091 203.449 144.602 203.577 144.176 203.832C143.756 204.082 143.426 204.42 143.188 204.847C142.949 205.267 142.827 205.736 142.821 206.253V208.392C142.821 209.04 142.94 209.599 143.179 210.071C143.423 210.543 143.767 210.906 144.21 211.162C144.653 211.418 145.179 211.545 145.787 211.545C146.19 211.545 146.56 211.489 146.895 211.375C147.23 211.261 147.517 211.091 147.756 210.864C147.994 210.636 148.176 210.358 148.301 210.028L151.659 210.25C151.489 211.057 151.139 211.761 150.611 212.364C150.088 212.96 149.412 213.426 148.582 213.761C147.759 214.091 146.807 214.256 145.727 214.256ZM164.997 204.642L161.673 204.847C161.616 204.562 161.494 204.307 161.307 204.08C161.119 203.847 160.872 203.662 160.565 203.526C160.264 203.384 159.903 203.312 159.483 203.312C158.92 203.312 158.446 203.432 158.06 203.67C157.673 203.903 157.48 204.216 157.48 204.608C157.48 204.92 157.605 205.185 157.855 205.401C158.105 205.616 158.534 205.79 159.142 205.92L161.511 206.398C162.784 206.659 163.733 207.08 164.358 207.659C164.983 208.239 165.295 209 165.295 209.943C165.295 210.801 165.043 211.554 164.537 212.202C164.037 212.849 163.349 213.355 162.474 213.719C161.605 214.077 160.602 214.256 159.466 214.256C157.733 214.256 156.352 213.895 155.324 213.173C154.301 212.446 153.702 211.457 153.526 210.207L157.097 210.02C157.205 210.548 157.466 210.952 157.881 211.23C158.295 211.503 158.827 211.639 159.474 211.639C160.111 211.639 160.622 211.517 161.009 211.273C161.401 211.023 161.599 210.702 161.605 210.31C161.599 209.98 161.46 209.71 161.188 209.5C160.915 209.284 160.494 209.119 159.926 209.006L157.659 208.554C156.381 208.298 155.429 207.855 154.804 207.224C154.185 206.594 153.875 205.79 153.875 204.812C153.875 203.972 154.102 203.247 154.557 202.639C155.017 202.031 155.662 201.562 156.491 201.233C157.327 200.903 158.304 200.739 159.423 200.739C161.077 200.739 162.378 201.088 163.327 201.787C164.281 202.486 164.838 203.437 164.997 204.642Z" fill="#FFB300"/>
<path d="M177.415 185.091V220H170.034V185.091H177.415ZM190.612 204.864V220H183.351V193.818H190.271V198.438H190.578C191.158 196.915 192.129 195.71 193.493 194.824C194.857 193.926 196.51 193.477 198.453 193.477C200.271 193.477 201.857 193.875 203.209 194.67C204.561 195.466 205.612 196.602 206.362 198.08C207.112 199.545 207.487 201.295 207.487 203.33V220H200.226V204.625C200.237 203.023 199.828 201.773 198.999 200.875C198.169 199.966 197.027 199.511 195.572 199.511C194.595 199.511 193.732 199.722 192.982 200.142C192.243 200.562 191.663 201.176 191.243 201.983C190.834 202.778 190.624 203.739 190.612 204.864ZM227.29 193.818V199.273H211.131V193.818H227.29ZM214.83 220V191.926C214.83 190.028 215.199 188.455 215.938 187.205C216.688 185.955 217.71 185.017 219.006 184.392C220.301 183.767 221.773 183.455 223.42 183.455C224.534 183.455 225.551 183.54 226.472 183.71C227.403 183.881 228.097 184.034 228.551 184.17L227.256 189.625C226.972 189.534 226.619 189.449 226.199 189.369C225.79 189.29 225.369 189.25 224.938 189.25C223.869 189.25 223.125 189.5 222.705 190C222.284 190.489 222.074 191.176 222.074 192.062V220H214.83ZM242.618 220.511C239.97 220.511 237.68 219.949 235.749 218.824C233.828 217.687 232.345 216.108 231.3 214.085C230.254 212.051 229.732 209.693 229.732 207.011C229.732 204.307 230.254 201.943 231.3 199.92C232.345 197.886 233.828 196.307 235.749 195.182C237.68 194.045 239.97 193.477 242.618 193.477C245.266 193.477 247.55 194.045 249.47 195.182C251.402 196.307 252.891 197.886 253.936 199.92C254.982 201.943 255.504 204.307 255.504 207.011C255.504 209.693 254.982 212.051 253.936 214.085C252.891 216.108 251.402 217.687 249.47 218.824C247.55 219.949 245.266 220.511 242.618 220.511ZM242.652 214.886C243.857 214.886 244.862 214.545 245.669 213.864C246.476 213.17 247.084 212.227 247.493 211.034C247.913 209.841 248.124 208.483 248.124 206.96C248.124 205.438 247.913 204.08 247.493 202.886C247.084 201.693 246.476 200.75 245.669 200.057C244.862 199.364 243.857 199.017 242.652 199.017C241.436 199.017 240.413 199.364 239.584 200.057C238.766 200.75 238.146 201.693 237.726 202.886C237.317 204.08 237.112 205.438 237.112 206.96C237.112 208.483 237.317 209.841 237.726 211.034C238.146 212.227 238.766 213.17 239.584 213.864C240.413 214.545 241.436 214.886 242.652 214.886Z" fill="#0074FF"/>
<defs>
<filter id="filter0_f_21_283" x="0" y="0" width="334" height="334" filterUnits="userSpaceOnUse" color-interpolation-filters="sRGB">
<feFlood flood-opacity="0" result="BackgroundImageFix"/>
<feBlend mode="normal" in="SourceGraphic" in2="BackgroundImageFix" result="shape"/>
<feGaussianBlur stdDeviation="2" result="effect1_foregroundBlur_21_283"/>
</filter>
<linearGradient id="paint0_linear_21_283" x1="167" y1="330" x2="167" y2="656" gradientUnits="userSpaceOnUse">
<stop stop-color="#0074FF"/>
<stop offset="1" stop-color="#FFB300" stop-opacity="0.947917"/>
</linearGradient>
</defs>
</svg>
