<svg width="80" height="80" viewBox="0 0 80 80" fill="none" xmlns="http://www.w3.org/2000/svg">
<g clip-path="url(#clip0_3_202)">
<path d="M73.3333 10H6.66668C5.78262 10 4.93478 10.3512 4.30965 10.9763C3.68453 11.6014 3.33334 12.4493 3.33334 13.3333V66.6667C3.33334 67.5507 3.68453 68.3986 4.30965 69.0237C4.93478 69.6488 5.78262 70 6.66668 70H73.3333C74.2174 70 75.0653 69.6488 75.6904 69.0237C76.3155 68.3986 76.6667 67.5507 76.6667 66.6667V13.3333C76.6667 12.4493 76.3155 11.6014 75.6904 10.9763C75.0653 10.3512 74.2174 10 73.3333 10ZM30.5 45.8333C31.0055 46.279 31.364 46.8674 31.5282 47.5209C31.6925 48.1745 31.6548 48.8625 31.4202 49.4942C31.1856 50.1259 30.765 50.6716 30.2139 51.0595C29.6629 51.4473 29.0072 51.659 28.3333 51.6667C27.5317 51.6732 26.7574 51.3754 26.1667 50.8333L16.1667 42.5C15.812 42.1872 15.5279 41.8025 15.3333 41.3715C15.1388 40.9404 15.0381 40.4729 15.0381 40C15.0381 39.5271 15.1388 39.0596 15.3333 38.6285C15.5279 38.1975 15.812 37.8128 16.1667 37.5L26.1667 29.1667C26.483 28.816 26.8701 28.5366 27.3025 28.3469C27.7349 28.1571 28.2027 28.0614 28.6749 28.0661C29.1471 28.0708 29.6129 28.1758 30.0414 28.374C30.47 28.5723 30.8516 28.8594 31.1608 29.2162C31.4701 29.573 31.7 29.9915 31.8353 30.4439C31.9707 30.8963 32.0084 31.3723 31.9459 31.8403C31.8834 32.3084 31.7222 32.7578 31.4729 33.1589C31.2237 33.5599 30.892 33.9034 30.5 34.1667L23.3333 40L30.5 45.8333ZM46.5 25.8333L39.8333 55.8333C39.6785 56.5532 39.2776 57.1966 38.6997 57.6529C38.1217 58.1092 37.4028 58.3498 36.6667 58.3333H35.8333C35.4097 58.2374 35.0104 58.0554 34.6601 57.7986C34.3099 57.5417 34.0162 57.2156 33.7974 56.8404C33.5785 56.4653 33.4392 56.0491 33.388 55.6178C33.3369 55.1865 33.375 54.7493 33.5 54.3333L40.1667 24.3333C40.2006 23.8439 40.3421 23.368 40.5811 22.9396C40.8201 22.5112 41.1507 22.1408 41.5494 21.8549C41.948 21.569 42.4049 21.3746 42.8873 21.2856C43.3698 21.1966 43.8659 21.2152 44.3404 21.34C44.8148 21.4649 45.2558 21.6929 45.632 22.0078C46.0081 22.3228 46.3101 22.7169 46.5164 23.162C46.7227 23.6071 46.8282 24.0922 46.8253 24.5828C46.8225 25.0734 46.7114 25.5573 46.5 26V25.8333ZM63.8333 42.5L53.8333 50.8333C53.2426 51.3754 52.4683 51.6732 51.6667 51.6667C50.9929 51.659 50.3372 51.4473 49.7861 51.0595C49.235 50.6716 48.8144 50.1259 48.5798 49.4942C48.3452 48.8625 48.3075 48.1745 48.4718 47.5209C48.6361 46.8674 48.9946 46.279 49.5 45.8333L56.6667 40L49.5 34.1667C48.9552 33.5627 48.6501 32.7804 48.642 31.9671C48.634 31.1538 48.9235 30.3656 49.4562 29.7509C49.9889 29.1363 50.728 28.7376 51.5342 28.63C52.3404 28.5224 53.1581 28.7133 53.8333 29.1667L63.8333 37.5C64.188 37.8128 64.4721 38.1975 64.6667 38.6285C64.8613 39.0596 64.9619 39.5271 64.9619 40C64.9619 40.4729 64.8613 40.9404 64.6667 41.3715C64.4721 41.8025 64.188 42.1872 63.8333 42.5Z" fill="#FAAE39"/>
</g>
<defs>
<clipPath id="clip0_3_202">
<rect width="80" height="80" fill="white"/>
</clipPath>
</defs>
</svg>
