<svg width="84" height="84" viewBox="0 0 84 84" fill="none" xmlns="http://www.w3.org/2000/svg">
<rect x="1" y="1" width="82" height="82" rx="41" stroke="#FEFEFE" stroke-width="2"/>
<path d="M60.2931 49.1119L60.1908 49.5181C60.038 49.9244 59.8349 50.3306 59.6821 50.7369C59.6821 50.8392 59.5798 51.0424 59.5294 51.1431C57.9044 54.749 54.8575 56.4747 50.1353 57.3392C49.8818 57.3896 49.4235 57.492 48.9669 57.5424C44.3958 58.1014 40.9426 58.2021 36.3731 57.7959C36.2204 57.7959 36.0172 57.7455 35.9165 57.7455C29.5692 57.0337 25.8106 54.749 23.8297 51.0927C23.7794 51.0424 23.677 50.8896 23.6266 50.6865C23.4235 50.3306 23.2707 49.874 23.118 49.5181C23.0156 49.315 22.9652 49.2126 22.9149 49.0615C22.2551 47.183 22 44.999 22 42.5615C22 38.2959 23.3211 36.6205 25.0972 34.3341C23.7257 29.4591 25.6562 26.1067 25.6562 26.1067C25.6562 26.1067 28.5504 25.4974 34.0347 29.4071C36.9809 28.138 44.8507 28.0356 48.6094 29.1536C50.8941 27.6294 55.1094 25.4974 56.8368 26.1067C57.243 26.8185 58.2082 28.9505 57.3957 33.6727C57.9548 34.6884 61.0016 36.9227 61.0016 43.1692C60.9512 45.454 60.6961 47.4349 60.2899 49.1102L60.2931 49.1119ZM27.031 47.6396C27.031 53.2767 30.9927 55.7646 36.5275 56.2212C36.8834 56.2716 37.2392 56.2716 37.6455 56.3236C40.2357 56.374 43.4857 56.426 46.6854 56.3236C47.3971 56.2732 48.1072 56.2212 48.767 56.1205C54.0482 55.3584 56.2322 52.3115 56.2322 48.0459C56.2322 44.9486 54.8104 40.8861 49.1229 40.8861C48.7166 40.8861 45.3642 41.2924 42.1662 41.2924C38.5604 41.2924 34.8537 40.8861 34.2947 40.8861C28.4545 40.8861 27.031 45.5076 27.031 47.6396ZM33.7341 45.0494C34.8521 45.0494 35.715 46.3705 35.715 47.9955C35.715 49.6205 34.8521 50.9416 33.7341 50.9416C32.6161 50.9416 31.8036 49.6205 31.8036 47.9955C31.8036 46.3705 32.6161 45.0494 33.7341 45.0494ZM50.1369 50.94C48.9685 50.94 48.1056 49.6189 48.1056 47.9939C48.1056 46.3689 48.9685 45.0477 50.1369 45.0477C51.2549 45.0477 52.1177 46.3689 52.1177 47.9939C52.1177 49.6189 51.2549 50.94 50.1369 50.94ZM41.7064 52.3619C41.1977 52.3619 40.7915 51.9052 40.7915 51.3966C40.7915 50.94 41.1977 50.5337 41.7064 50.5337C42.215 50.5337 42.6716 50.94 42.6716 51.3966C42.6716 51.9052 42.215 52.3619 41.7064 52.3619ZM41.7567 55.4087C40.2845 55.4087 39.1161 54.1396 39.1161 53.3775C39.1161 53.072 39.3192 52.8185 39.6247 52.8185C39.9302 52.8185 40.1334 53.072 40.1334 53.3775C40.1837 53.5302 40.8451 54.3931 41.7584 54.3931C42.4701 54.3931 43.1299 53.7837 43.1299 53.3775C43.1299 53.072 43.3834 52.8185 43.6385 52.8185C43.944 52.8185 44.1975 53.072 44.1975 53.3775C44.1975 54.2924 43.1819 55.4087 41.76 55.4087H41.7567Z" fill="#FEFEFE"/>
</svg>
