<svg width="30" height="30" viewBox="0 0 30 30" fill="none" xmlns="http://www.w3.org/2000/svg">
<g clip-path="url(#clip0_4_325)">
<path d="M15 2.50009C12.0233 2.48886 9.14031 3.54028 6.86972 5.46517C4.59912 7.39006 3.08998 10.0621 2.61381 13.0004C2.13765 15.9388 2.72571 18.9507 4.2722 21.4941C5.8187 24.0376 8.2221 25.9457 11.05 26.8751C11.675 26.9751 11.875 26.5876 11.875 26.2501V24.1376C8.41249 24.8876 7.67499 22.5001 7.67499 22.5001C7.44155 21.7237 6.93549 21.0579 6.24999 20.6251C5.11249 19.8501 6.33749 19.8751 6.33749 19.8751C6.72987 19.9258 7.10569 20.0646 7.43687 20.2811C7.76805 20.4976 8.04602 20.7861 8.24999 21.1251C8.59722 21.7425 9.17414 22.1978 9.85532 22.3921C10.5365 22.5864 11.2668 22.5039 11.8875 22.1626C11.9444 21.5289 12.2233 20.9357 12.675 20.4876C9.99999 20.2126 7.02499 19.1376 7.02499 14.3751C6.98884 13.1269 7.43674 11.9131 8.27499 10.9876C7.89442 9.91188 7.93913 8.73142 8.39999 7.68759C8.39999 7.68759 9.45 7.35009 11.8375 8.93759C13.8845 8.38731 16.0405 8.38731 18.0875 8.93759C20.475 7.32509 21.525 7.68759 21.525 7.68759C21.9859 8.73142 22.0306 9.91188 21.65 10.9876C22.4883 11.9131 22.9362 13.1269 22.9 14.3751C22.9 19.1501 19.975 20.2001 17.1875 20.5126C17.4877 20.8144 17.72 21.1768 17.8687 21.5756C18.0175 21.9744 18.0793 22.4004 18.05 22.8251V26.2501C18.05 26.5876 18.25 26.9876 18.8875 26.8751C21.7102 25.9473 24.1102 24.0444 25.657 21.5075C27.2038 18.9705 27.7964 15.9656 27.3284 13.0314C26.8604 10.0972 25.3625 7.4256 23.1033 5.4957C20.8441 3.56581 17.9713 2.5038 15 2.50009Z" fill="#AD6B05"/>
</g>
<defs>
<clipPath id="clip0_4_325">
<rect width="30" height="30" fill="white"/>
</clipPath>
</defs>
</svg>
