<svg width="80" height="80" viewBox="0 0 80 80" fill="none" xmlns="http://www.w3.org/2000/svg">
<rect width="80" height="80" rx="4" fill="#FAAE39"/>
<path d="M20.3125 25.3901H60C61.485 25.3901 62.8125 26.7176 62.8125 28.2026V34.7651C62.8125 36.3276 61.485 37.5776 60 37.5776H20.3125C18.75 37.5776 17.5 36.3276 17.5 34.7651V28.2026C17.5 26.7176 18.75 25.3901 20.3125 25.3901ZM59.375 32.1101V30.8601C59.375 30.3901 58.905 29.9226 58.4375 29.9226H53.4375C52.89 29.9226 52.5 30.3926 52.5 30.8601V32.1101C52.5 32.6576 52.89 33.0476 53.4375 33.0476H58.4375C58.9075 33.0476 59.375 32.6576 59.375 32.1101ZM20.3125 39.7651H60C61.485 39.7651 62.8125 41.0151 62.8125 42.5776V49.1401C62.8125 50.7026 61.485 51.9526 60 51.9526H20.3125C18.75 51.9526 17.5 50.7026 17.5 49.1401V42.5776C17.5 41.0151 18.75 39.7651 20.3125 39.7651ZM59.375 46.4851V45.2351C59.375 44.7651 58.905 44.2976 58.4375 44.2976H53.4375C52.89 44.2976 52.5 44.7676 52.5 45.2351V46.4851C52.5 47.0326 52.89 47.4226 53.4375 47.4226H58.4375C58.9075 47.4226 59.375 47.0326 59.375 46.4851ZM20.3125 54.1401H60C61.485 54.1401 62.8125 55.3901 62.8125 56.9526V63.5151C62.8125 65.0776 61.485 66.3276 60 66.3276H20.3125C18.75 66.3276 17.5 65.0776 17.5 63.5151V56.9526C17.5 55.3901 18.75 54.1401 20.3125 54.1401ZM59.375 60.8601V59.6101C59.375 59.0626 58.905 58.6726 58.4375 58.6726H53.4375C52.89 58.6726 52.5 59.0626 52.5 59.6101V60.8601C52.5 61.4076 52.89 61.7976 53.4375 61.7976H58.4375C58.9075 61.7976 59.375 61.4076 59.375 60.8601ZM60 23.2826H20.3125C19.8425 23.2826 19.375 23.3601 18.985 23.5176L23.75 17.0326C24.6875 15.7826 26.72 14.7676 28.2825 14.7676H52.0325C53.5175 14.7676 55.5475 15.7826 56.485 17.0326L61.33 23.5176C60.86 23.3601 60.39 23.2826 60 23.2826Z" fill="#FEFEFE"/>
</svg>
