<svg width="84" height="84" viewBox="0 0 84 84" fill="none" xmlns="http://www.w3.org/2000/svg">
<rect x="1" y="1" width="82" height="82" rx="41" stroke="#FEFEFE" stroke-width="2"/>
<path d="M30.2659 29.4702H22.0824V58.0002H30.2659V29.4702Z" fill="#FEFEFE"/>
<path d="M26.002 16C22.9844 16 21 18.1259 21 20.9485C21 23.7176 22.9188 25.8971 25.8872 25.8971H25.9528C29.0359 25.8971 30.9547 23.6997 30.9383 20.9485C30.8727 18.1259 29.0195 16 26.002 16Z" fill="#FEFEFE"/>
<path d="M52.6189 29.2021C47.9286 29.2021 44.993 31.989 44.4518 33.9542V29.4701H35.2515C35.3663 31.8461 35.2515 58.0001 35.2515 58.0001H44.4518V42.5828C44.4518 41.7075 44.419 40.85 44.6486 40.2426C45.2718 38.5275 46.633 36.7411 49.0766 36.7411C52.2745 36.7411 53.7177 39.385 53.7177 43.2438V58.0001H63V42.1362C63 33.311 58.4409 29.2021 52.6189 29.2021Z" fill="#FEFEFE"/>
</svg>
