<svg width="84" height="84" viewBox="0 0 84 84" fill="none" xmlns="http://www.w3.org/2000/svg">
<rect x="1" y="1" width="82" height="82" rx="41" stroke="#FEFEFE" stroke-width="2"/>
<path d="M63 28.1907V57.5452C63 59.453 61.719 60.9979 60.137 60.9979H53.4538V41.4297L42 51.7921L30.5463 41.4297V61H23.863C23.4869 61 23.1144 60.9106 22.767 60.737C22.4195 60.5633 22.1038 60.3088 21.8379 59.988C21.5721 59.6671 21.3612 59.2863 21.2174 58.8671C21.0737 58.448 20.9998 57.9988 21 57.5452V28.1907C21 23.9213 25.0408 21.4837 27.8723 24.0458L30.5463 26.4665L42 36.8247L53.4538 26.4623L56.1278 24.0458C58.9575 21.4858 63 23.9213 63 28.1907Z" fill="#FEFEFE"/>
</svg>
